<?xml version="1.0" encoding="UTF-8" standalone="no"?>
<svg
   xmlns:dc="http://purl.org/dc/elements/1.1/"
   xmlns:cc="http://creativecommons.org/ns#"
   xmlns:rdf="http://www.w3.org/1999/02/22-rdf-syntax-ns#"
   xmlns:svg="http://www.w3.org/2000/svg"
   xmlns="http://www.w3.org/2000/svg"
   xmlns:sodipodi="http://sodipodi.sourceforge.net/DTD/sodipodi-0.dtd"
   xmlns:inkscape="http://www.inkscape.org/namespaces/inkscape"
   inkscape:version="1.0 (4035a4fb49, 2020-05-01)"
   sodipodi:docname="810 (1).svg"
   id="svg4449"
   xml:space="preserve"
   viewBox="0 0 128 128"
   height="64px"
   width="64px"
   version="1.0"><metadata
     id="metadata4455"><rdf:RDF><cc:Work
         rdf:about=""><dc:format>image/svg+xml</dc:format><dc:type
           rdf:resource="http://purl.org/dc/dcmitype/StillImage" /></cc:Work></rdf:RDF></metadata><defs
     id="defs4453" /><sodipodi:namedview
     inkscape:current-layer="svg4449"
     inkscape:window-maximized="1"
     inkscape:window-y="-8"
     inkscape:window-x="-8"
     inkscape:cy="32"
     inkscape:cx="32"
     inkscape:zoom="13.28125"
     showgrid="false"
     id="namedview4451"
     inkscape:window-height="1017"
     inkscape:window-width="1920"
     inkscape:pageshadow="2"
     inkscape:pageopacity="0"
     guidetolerance="10"
     gridtolerance="10"
     objecttolerance="10"
     borderopacity="1"
     bordercolor="#666666"
     pagecolor="#ffffff" /><g
     id="g4447"><path
       id="path4435"
       fill="#ffcb02"
       d="M.6 57.54c5.73-6.23 17.33-15.5 33.66-12.35C55.4 48.5 64 63.95 64 63.95S42.42 65 30.28 83.63a38.63 38.63 0 0 0-3.4 32.15 64.47 64.47 0 0 1-5.52-4.44A63.64 63.64 0 0 1 .6 57.54z" /><path
       id="path4437"
       fill="#ff9e02"
       d="M65.32 29.05c7.65 19.98-1.44 35.18-1.44 35.18S52.2 46.05 30.03 44.85A38.6 38.6 0 0 0 .56 57.93 63.8 63.8 0 0 1 37.56 6c8.2 1.8 22.26 7.16 27.76 23.05z" /><path
       id="path4439"
       fill="#ff4b42"
       d="M94.92 47.7c-13.48 16.63-31.2 16.36-31.2 16.36s9.92-19.2-.13-39a38.6 38.6 0 0 0-26.18-19 63.78 63.78 0 0 1 63.52 6.03c2.56 8 4.98 22.85-6.05 35.6z" /><path
       id="path4441"
       fill="#c063d6"
       d="M93.52 82.53C72.38 79.17 63.75 63.7 63.75 63.7s21.6-1.02 33.7-19.63a38.6 38.6 0 0 0 3.43-32.04 64.33 64.33 0 0 1 5.74 4.6 63.63 63.63 0 0 1 20.82 53.26c-5.62 6.2-17.34 15.8-33.94 12.6z" /><path
       id="path4443"
       fill="#17a4f6"
       d="M62.5 99c-7.65-19.98 1.44-35.17 1.44-35.17S75.56 81.6 97.74 82.8a39.1 39.1 0 0 0 29.73-13.03 63.8 63.8 0 0 1-37.16 52.3c-8.2-1.8-22.25-7.15-27.8-23.06z" /><path
       id="path4445"
       fill="#4fca24"
       d="M26.64 115.63C24 107.6 21.6 93.06 32.5 80.5c13.48-16.62 31.58-16.55 31.58-16.55s-9.6 19.06.44 38.86a38.82 38.82 0 0 0 26.05 19.17 63.78 63.78 0 0 1-63.93-6.3z" /><animateTransform
       repeatCount="indefinite"
       dur="1500ms"
       to="360 64 64"
       from="0 64 64"
       type="rotate"
       attributeName="transform" /></g></svg>
